<mxfile modified="2021-06-07T19:15:03.205Z" host="app.diagrams.net" agent="5.0 (Macintosh; Intel Mac OS X 10_15_7) AppleWebKit/537.36 (KHTML, like Gecko) Chrome/90.0.4430.212 Safari/537.36" etag="GUTd7xwWwNGfkWOYKJRt" version="14.7.6" type="github">
  <diagram id="Ht1M8jgEwFfnCIfOTk4-" name="Page-1">
    <mxGraphModel dx="1426" dy="664" grid="1" gridSize="10" guides="1" tooltips="1" connect="1" arrows="1" fold="1" page="1" pageScale="1" pageWidth="1169" pageHeight="827" math="0" shadow="0">
      <root>
        <mxCell id="0" />
        <mxCell id="1" parent="0" />
        <mxCell id="XIe3vOlvN6VrBtcLrT3Q-22" value="" style="rounded=1;whiteSpace=wrap;html=1;rotation=90;" vertex="1" parent="1">
          <mxGeometry x="781.25" y="306.25" width="490" height="197.5" as="geometry" />
        </mxCell>
        <mxCell id="XIe3vOlvN6VrBtcLrT3Q-13" value="" style="rounded=0;whiteSpace=wrap;html=1;" vertex="1" parent="1">
          <mxGeometry x="365" y="330" width="215" height="120" as="geometry" />
        </mxCell>
        <mxCell id="XIe3vOlvN6VrBtcLrT3Q-1" value="ERP #1 Data" style="outlineConnect=0;fontColor=#232F3E;gradientColor=none;fillColor=#3334B9;strokeColor=none;dashed=0;verticalLabelPosition=bottom;verticalAlign=top;align=center;html=1;fontSize=12;fontStyle=0;aspect=fixed;pointerEvents=1;shape=mxgraph.aws4.rds_instance;" vertex="1" parent="1">
          <mxGeometry x="30" y="200" width="78" height="78" as="geometry" />
        </mxCell>
        <mxCell id="XIe3vOlvN6VrBtcLrT3Q-2" value="ERP #2 Data" style="outlineConnect=0;fontColor=#232F3E;gradientColor=none;fillColor=#3334B9;strokeColor=none;dashed=0;verticalLabelPosition=bottom;verticalAlign=top;align=center;html=1;fontSize=12;fontStyle=0;aspect=fixed;pointerEvents=1;shape=mxgraph.aws4.rds_instance;" vertex="1" parent="1">
          <mxGeometry x="30" y="340" width="78" height="78" as="geometry" />
        </mxCell>
        <mxCell id="XIe3vOlvN6VrBtcLrT3Q-3" value="Social Media Feeds&amp;nbsp;" style="outlineConnect=0;fontColor=#232F3E;gradientColor=none;fillColor=#277116;strokeColor=none;dashed=0;verticalLabelPosition=bottom;verticalAlign=top;align=center;html=1;fontSize=12;fontStyle=0;aspect=fixed;pointerEvents=1;shape=mxgraph.aws4.bucket;" vertex="1" parent="1">
          <mxGeometry x="31.5" y="490" width="75" height="78" as="geometry" />
        </mxCell>
        <mxCell id="XIe3vOlvN6VrBtcLrT3Q-5" value="" style="endArrow=classic;html=1;" edge="1" parent="1" source="XIe3vOlvN6VrBtcLrT3Q-1">
          <mxGeometry width="50" height="50" relative="1" as="geometry">
            <mxPoint x="490" y="410" as="sourcePoint" />
            <mxPoint x="210" y="370" as="targetPoint" />
          </mxGeometry>
        </mxCell>
        <mxCell id="XIe3vOlvN6VrBtcLrT3Q-6" value="" style="endArrow=classic;html=1;entryX=0;entryY=0.5;entryDx=0;entryDy=0;entryPerimeter=0;" edge="1" parent="1" source="XIe3vOlvN6VrBtcLrT3Q-2" target="XIe3vOlvN6VrBtcLrT3Q-8">
          <mxGeometry width="50" height="50" relative="1" as="geometry">
            <mxPoint x="118" y="259.0191082802547" as="sourcePoint" />
            <mxPoint x="290" y="378" as="targetPoint" />
          </mxGeometry>
        </mxCell>
        <mxCell id="XIe3vOlvN6VrBtcLrT3Q-7" value="" style="endArrow=classic;html=1;" edge="1" parent="1" source="XIe3vOlvN6VrBtcLrT3Q-3" target="XIe3vOlvN6VrBtcLrT3Q-8">
          <mxGeometry width="50" height="50" relative="1" as="geometry">
            <mxPoint x="128" y="269.0191082802547" as="sourcePoint" />
            <mxPoint x="270" y="430" as="targetPoint" />
          </mxGeometry>
        </mxCell>
        <mxCell id="XIe3vOlvN6VrBtcLrT3Q-8" value="Data Extract" style="points=[[0,0,0],[0.25,0,0],[0.5,0,0],[0.75,0,0],[1,0,0],[0,1,0],[0.25,1,0],[0.5,1,0],[0.75,1,0],[1,1,0],[0,0.25,0],[0,0.5,0],[0,0.75,0],[1,0.25,0],[1,0.5,0],[1,0.75,0]];outlineConnect=0;fontColor=#232F3E;gradientColor=#945DF2;gradientDirection=north;fillColor=#5A30B5;strokeColor=#ffffff;dashed=0;verticalLabelPosition=bottom;verticalAlign=top;align=center;html=1;fontSize=12;fontStyle=0;aspect=fixed;shape=mxgraph.aws4.resourceIcon;resIcon=mxgraph.aws4.glue;" vertex="1" parent="1">
          <mxGeometry x="210" y="350" width="78" height="78" as="geometry" />
        </mxCell>
        <mxCell id="XIe3vOlvN6VrBtcLrT3Q-9" value="" style="endArrow=classic;html=1;exitX=1;exitY=0.5;exitDx=0;exitDy=0;exitPerimeter=0;" edge="1" parent="1" source="XIe3vOlvN6VrBtcLrT3Q-8">
          <mxGeometry width="50" height="50" relative="1" as="geometry">
            <mxPoint x="118" y="271.3649289099526" as="sourcePoint" />
            <mxPoint x="360" y="389" as="targetPoint" />
          </mxGeometry>
        </mxCell>
        <mxCell id="XIe3vOlvN6VrBtcLrT3Q-10" value="Data Convert" style="points=[[0,0,0],[0.25,0,0],[0.5,0,0],[0.75,0,0],[1,0,0],[0,1,0],[0.25,1,0],[0.5,1,0],[0.75,1,0],[1,1,0],[0,0.25,0],[0,0.5,0],[0,0.75,0],[1,0.25,0],[1,0.5,0],[1,0.75,0]];outlineConnect=0;fontColor=#232F3E;gradientColor=#945DF2;gradientDirection=north;fillColor=#5A30B5;strokeColor=#ffffff;dashed=0;verticalLabelPosition=bottom;verticalAlign=top;align=center;html=1;fontSize=12;fontStyle=0;aspect=fixed;shape=mxgraph.aws4.resourceIcon;resIcon=mxgraph.aws4.glue;" vertex="1" parent="1">
          <mxGeometry x="420" y="210" width="78" height="78" as="geometry" />
        </mxCell>
        <mxCell id="XIe3vOlvN6VrBtcLrT3Q-11" value="" style="endArrow=classic;html=1;" edge="1" parent="1" source="XIe3vOlvN6VrBtcLrT3Q-14" target="XIe3vOlvN6VrBtcLrT3Q-10">
          <mxGeometry width="50" height="50" relative="1" as="geometry">
            <mxPoint x="570" y="378.5" as="sourcePoint" />
            <mxPoint x="652" y="378.5" as="targetPoint" />
          </mxGeometry>
        </mxCell>
        <mxCell id="XIe3vOlvN6VrBtcLrT3Q-14" value="Raw CSV" style="outlineConnect=0;fontColor=#232F3E;gradientColor=none;fillColor=#277116;strokeColor=none;dashed=0;verticalLabelPosition=bottom;verticalAlign=top;align=center;html=1;fontSize=12;fontStyle=0;aspect=fixed;pointerEvents=1;shape=mxgraph.aws4.bucket;" vertex="1" parent="1">
          <mxGeometry x="400" y="364" width="48.08" height="50" as="geometry" />
        </mxCell>
        <mxCell id="XIe3vOlvN6VrBtcLrT3Q-15" value="Neptune CSV" style="outlineConnect=0;fontColor=#232F3E;gradientColor=none;fillColor=#277116;strokeColor=none;dashed=0;verticalLabelPosition=bottom;verticalAlign=top;align=center;html=1;fontSize=12;fontStyle=0;aspect=fixed;pointerEvents=1;shape=mxgraph.aws4.bucket;" vertex="1" parent="1">
          <mxGeometry x="500" y="365" width="48.08" height="50" as="geometry" />
        </mxCell>
        <mxCell id="XIe3vOlvN6VrBtcLrT3Q-16" value="" style="endArrow=classic;html=1;exitX=0.75;exitY=1;exitDx=0;exitDy=0;exitPerimeter=0;" edge="1" parent="1" source="XIe3vOlvN6VrBtcLrT3Q-10" target="XIe3vOlvN6VrBtcLrT3Q-15">
          <mxGeometry width="50" height="50" relative="1" as="geometry">
            <mxPoint x="440.27134872199304" y="374.046086353575" as="sourcePoint" />
            <mxPoint x="590" y="280" as="targetPoint" />
          </mxGeometry>
        </mxCell>
        <mxCell id="XIe3vOlvN6VrBtcLrT3Q-18" value="Bulk Loader" style="outlineConnect=0;dashed=0;verticalLabelPosition=bottom;verticalAlign=top;align=center;html=1;shape=mxgraph.aws3.ec2;fillColor=#F58534;gradientColor=none;" vertex="1" parent="1">
          <mxGeometry x="650" y="364" width="49.35" height="60" as="geometry" />
        </mxCell>
        <mxCell id="XIe3vOlvN6VrBtcLrT3Q-19" value="" style="endArrow=classic;html=1;" edge="1" parent="1" source="XIe3vOlvN6VrBtcLrT3Q-15" target="XIe3vOlvN6VrBtcLrT3Q-18">
          <mxGeometry width="50" height="50" relative="1" as="geometry">
            <mxPoint x="730" y="375" as="sourcePoint" />
            <mxPoint x="510" y="510" as="targetPoint" />
          </mxGeometry>
        </mxCell>
        <mxCell id="XIe3vOlvN6VrBtcLrT3Q-20" value="" style="points=[[0,0,0],[0.25,0,0],[0.5,0,0],[0.75,0,0],[1,0,0],[0,1,0],[0.25,1,0],[0.5,1,0],[0.75,1,0],[1,1,0],[0,0.25,0],[0,0.5,0],[0,0.75,0],[1,0.25,0],[1,0.5,0],[1,0.75,0]];outlineConnect=0;fontColor=#232F3E;gradientColor=#4D72F3;gradientDirection=north;fillColor=#3334B9;strokeColor=#ffffff;dashed=0;verticalLabelPosition=bottom;verticalAlign=top;align=center;html=1;fontSize=12;fontStyle=0;aspect=fixed;shape=mxgraph.aws4.resourceIcon;resIcon=mxgraph.aws4.neptune;" vertex="1" parent="1">
          <mxGeometry x="770" y="355" width="78" height="78" as="geometry" />
        </mxCell>
        <mxCell id="XIe3vOlvN6VrBtcLrT3Q-21" value="" style="endArrow=classic;html=1;exitX=1;exitY=0.5;exitDx=0;exitDy=0;exitPerimeter=0;" edge="1" parent="1" source="XIe3vOlvN6VrBtcLrT3Q-18" target="XIe3vOlvN6VrBtcLrT3Q-20">
          <mxGeometry width="50" height="50" relative="1" as="geometry">
            <mxPoint x="558.0799999999999" y="400.6383642579747" as="sourcePoint" />
            <mxPoint x="660" y="403.34477379095165" as="targetPoint" />
          </mxGeometry>
        </mxCell>
        <mxCell id="XIe3vOlvN6VrBtcLrT3Q-24" value="Jupyter Notebooks" style="outlineConnect=0;fontColor=#232F3E;gradientColor=none;fillColor=#277116;strokeColor=none;dashed=0;verticalLabelPosition=bottom;verticalAlign=top;align=center;html=1;fontSize=12;fontStyle=0;aspect=fixed;pointerEvents=1;shape=mxgraph.aws4.notebook;" vertex="1" parent="1">
          <mxGeometry x="992.25" y="220" width="68" height="78" as="geometry" />
        </mxCell>
        <mxCell id="XIe3vOlvN6VrBtcLrT3Q-25" value="" style="points=[[0,0,0],[0.25,0,0],[0.5,0,0],[0.75,0,0],[1,0,0],[0,1,0],[0.25,1,0],[0.5,1,0],[0.75,1,0],[1,1,0],[0,0.25,0],[0,0.5,0],[0,0.75,0],[1,0.25,0],[1,0.5,0],[1,0.75,0]];outlineConnect=0;fontColor=#232F3E;gradientColor=#945DF2;gradientDirection=north;fillColor=#5A30B5;strokeColor=#ffffff;dashed=0;verticalLabelPosition=bottom;verticalAlign=top;align=center;html=1;fontSize=12;fontStyle=0;aspect=fixed;shape=mxgraph.aws4.resourceIcon;resIcon=mxgraph.aws4.quicksight;" vertex="1" parent="1">
          <mxGeometry x="982.25" y="440" width="78" height="78" as="geometry" />
        </mxCell>
        <mxCell id="XIe3vOlvN6VrBtcLrT3Q-26" value="" style="endArrow=classic;html=1;exitX=1;exitY=0.5;exitDx=0;exitDy=0;exitPerimeter=0;" edge="1" parent="1" source="XIe3vOlvN6VrBtcLrT3Q-20" target="XIe3vOlvN6VrBtcLrT3Q-24">
          <mxGeometry width="50" height="50" relative="1" as="geometry">
            <mxPoint x="709.3499999999999" y="404" as="sourcePoint" />
            <mxPoint x="780" y="404" as="targetPoint" />
          </mxGeometry>
        </mxCell>
        <mxCell id="XIe3vOlvN6VrBtcLrT3Q-27" value="Live AdHoc Queries" style="edgeLabel;html=1;align=center;verticalAlign=middle;resizable=0;points=[];" vertex="1" connectable="0" parent="XIe3vOlvN6VrBtcLrT3Q-26">
          <mxGeometry x="-0.1887" y="1" relative="1" as="geometry">
            <mxPoint as="offset" />
          </mxGeometry>
        </mxCell>
        <mxCell id="XIe3vOlvN6VrBtcLrT3Q-28" value="" style="endArrow=classic;html=1;" edge="1" parent="1" source="XIe3vOlvN6VrBtcLrT3Q-20">
          <mxGeometry width="50" height="50" relative="1" as="geometry">
            <mxPoint x="858" y="404" as="sourcePoint" />
            <mxPoint x="980" y="480" as="targetPoint" />
          </mxGeometry>
        </mxCell>
        <mxCell id="XIe3vOlvN6VrBtcLrT3Q-29" value="Data Extracts for Reports" style="edgeLabel;html=1;align=center;verticalAlign=middle;resizable=0;points=[];" vertex="1" connectable="0" parent="XIe3vOlvN6VrBtcLrT3Q-28">
          <mxGeometry x="-0.1887" y="1" relative="1" as="geometry">
            <mxPoint as="offset" />
          </mxGeometry>
        </mxCell>
      </root>
    </mxGraphModel>
  </diagram>
</mxfile>
